<svg version="1.1" id="Layer_1" xmlns="http://www.w3.org/2000/svg" xmlns:xlink="http://www.w3.org/1999/xlink" x="0px" y="0px"
	 width="100%" viewBox="0 0 606 114" enable-background="new 0 0 606 114" xml:space="preserve">
<path fill="#FEFEFF" opacity="1.000000" stroke="none" 
	d="
M441.000000,115.000000 
	C295.550354,115.000000 150.600662,114.974785 5.651158,115.124115 
	C1.389768,115.128502 0.878482,114.007431 0.897594,110.153816 
	C1.071941,75.000229 1.055644,39.845181 0.908003,4.691345 
	C0.894278,1.423304 1.824643,0.932078 4.806462,0.933181 
	C204.237167,1.007000 403.667908,1.004817 603.098633,0.950577 
	C605.869812,0.949823 607.124084,1.097409 607.106934,4.596560 
	C606.932068,40.249989 606.943970,75.904846 607.097290,111.558464 
	C607.110779,114.705040 606.263733,115.074081 603.443420,115.069183 
	C549.462402,114.975578 495.481171,115.000000 441.000000,115.000000 
z"/>
<path fill="#ECECEC" opacity="1.000000" stroke="none" 
	d="
M237.462234,92.527924 
	C239.388992,92.101501 241.052826,92.006721 242.716675,92.006622 
	C353.147919,91.999649 463.579193,92.000099 574.010437,92.002777 
	C575.342468,92.002808 576.680847,91.964485 578.005005,92.077103 
	C580.168701,92.261116 579.995972,93.961655 579.990356,95.445320 
	C579.984924,96.907753 580.244690,98.646576 578.117065,98.911697 
	C576.802795,99.075478 575.457031,99.007759 574.125366,99.007759 
	C462.361633,99.008286 350.597900,99.005257 238.358185,98.993958 
	C236.345154,97.105232 236.492096,95.035942 237.462234,92.527924 
z"/>
<path fill="#5D73F6" opacity="1.000000" stroke="none" 
	d="
M237.277557,92.118378 
	C237.756042,94.144402 237.786942,96.136703 237.850037,98.557220 
	C236.616150,100.786827 234.715958,100.528328 232.890915,100.528290 
	C166.579895,100.527016 100.268852,100.504150 33.957947,100.590752 
	C30.405712,100.595390 28.929438,99.822739 28.935982,95.912437 
	C28.941998,92.315788 30.454681,91.907356 33.403343,91.910042 
	C100.713852,91.971268 168.024414,91.966454 235.334976,91.978973 
	C235.833298,91.979065 236.331635,92.047920 237.277557,92.118378 
z"/>
<path fill="#5A62F6" opacity="1.000000" stroke="none" 
	d="
M207.272598,72.721619 
	C204.847916,77.104706 201.125854,74.682076 198.239044,74.687454 
	C195.488968,74.692589 196.462692,71.623436 196.445816,69.848694 
	C196.347809,59.543949 196.469498,49.237041 196.359909,38.932529 
	C196.321915,35.360855 197.545502,33.871887 201.318359,34.093311 
	C207.187836,34.437786 213.322403,33.170101 217.736786,38.822933 
	C221.204041,43.262901 222.007797,49.641861 219.060822,54.407230 
	C218.001572,56.120106 217.340012,57.247860 218.682541,59.428280 
	C220.184418,61.867493 220.821884,64.860718 220.774887,67.988998 
	C220.662018,75.499809 217.791382,77.169846 210.100128,73.390579 
	C207.991776,70.638260 209.175888,67.717125 208.432312,65.170166 
	C208.274353,65.239220 208.281570,65.697151 208.294922,65.966568 
	C208.288589,68.332047 208.640549,70.477196 207.272598,72.721619 
z"/>
<path fill="#5A63F6" opacity="1.000000" stroke="none" 
	d="
M299.061432,52.001209 
	C299.062683,47.014778 299.023132,42.527336 299.089203,38.041454 
	C299.109924,36.635532 298.687592,34.470379 300.701721,34.399620 
	C307.230377,34.170246 314.116638,32.628891 319.685760,37.711426 
	C323.596466,41.280430 324.585388,49.896793 321.591003,54.788136 
	C320.628174,56.360962 320.234497,57.325390 321.323090,59.073101 
	C323.228027,62.131527 322.867401,65.749504 323.184418,69.223038 
	C323.601837,73.796249 322.005768,75.198517 317.393097,75.108215 
	C313.445862,75.030945 312.468475,73.610909 312.815643,70.131767 
	C313.095825,67.323570 312.893463,64.582886 309.695038,61.894829 
	C309.695038,65.573792 309.523407,68.487122 309.734650,71.372414 
	C310.064850,75.883194 306.907501,74.960320 304.412506,74.923225 
	C301.980499,74.887077 298.848114,76.023804 299.010376,71.443260 
	C299.233795,65.136421 299.063202,58.815620 299.061432,52.001209 
z"/>
<path fill="#5860F6" opacity="1.000000" stroke="none" 
	d="
M497.725098,67.925995 
	C497.726715,60.268738 497.689484,53.103241 497.741150,45.938389 
	C497.793640,38.659554 502.005432,34.152042 508.829498,33.949772 
	C515.496094,33.752167 521.326965,38.592327 521.544800,45.157318 
	C521.837524,53.979111 521.658752,62.818184 521.601257,71.649315 
	C521.569641,76.513863 517.769836,74.589691 515.323975,74.915459 
	C512.791321,75.252800 510.745117,74.985214 510.825256,71.455284 
	C510.987885,64.293846 510.875458,57.125992 510.859436,49.960823 
	C510.856842,48.796921 510.848419,47.622223 510.692780,46.472824 
	C510.562744,45.512993 510.376221,44.266026 509.107544,44.315548 
	C507.639160,44.372856 508.044800,45.744049 508.039825,46.613052 
	C507.996063,54.277924 507.815002,61.950092 508.088348,69.605324 
	C508.227386,73.499084 507.504669,75.098412 503.047974,75.135017 
	C498.434601,75.172913 497.062927,73.609146 497.718719,69.416786 
	C497.769592,69.091492 497.725311,68.751312 497.725098,67.925995 
z"/>
<path fill="#5D65F6" opacity="1.000000" stroke="none" 
	d="
M47.922066,34.761566 
	C54.060383,36.839321 56.839447,40.832790 56.712067,46.901966 
	C56.656235,49.562054 56.778988,52.227154 56.680969,54.884827 
	C56.456360,60.975029 53.499111,64.996254 47.545673,66.219788 
	C44.510242,66.843613 43.239517,67.824707 43.377625,70.987534 
	C43.627853,76.718163 39.155533,74.534691 36.282784,74.954605 
	C32.756397,75.470078 32.213837,73.506073 32.249714,70.512283 
	C32.375267,60.035099 32.404503,49.553814 32.239948,39.077709 
	C32.182968,35.449993 33.358856,33.802181 37.113815,34.118736 
	C40.580982,34.411030 44.098625,33.764111 47.922066,34.761566 
z"/>
<path fill="#5A63F6" opacity="1.000000" stroke="none" 
	d="
M576.659668,52.681347 
	C578.536255,56.828278 577.424988,60.879364 577.704895,65.294037 
	C577.218323,66.655663 576.990784,67.664543 576.504333,68.906143 
	C573.043701,74.802582 567.745056,76.755424 561.106018,74.828484 
	C556.761475,73.567490 554.099731,69.349442 554.077881,63.528267 
	C554.052917,56.870995 553.950073,50.208900 554.154968,43.557335 
	C554.353577,37.108540 561.106079,32.832867 568.795471,34.033489 
	C573.874634,34.826546 578.572205,41.731674 577.619751,46.801208 
	C577.308777,48.456192 576.415100,49.086800 574.930176,49.121891 
	C572.934448,49.169056 570.936646,49.124210 568.496338,49.037205 
	C566.369202,47.988205 567.835693,45.210045 565.213013,44.639088 
	C564.837952,46.870567 564.794556,49.054676 564.794434,51.704468 
	C565.028259,52.337940 565.218811,52.505730 565.442871,53.051285 
	C565.492310,54.920498 565.481506,56.412003 565.485229,58.259926 
	C565.426208,59.874401 565.536194,61.098873 566.314758,62.400120 
	C565.886475,61.086876 565.354919,60.003551 565.515503,58.405243 
	C565.573792,56.405846 565.364685,54.772652 566.026367,52.853256 
	C569.637756,51.659298 572.949585,51.806713 576.659668,52.681347 
z"/>
<path fill="#5D66F6" opacity="1.000000" stroke="none" 
	d="
M155.950714,49.347092 
	C162.149124,49.474293 163.838913,51.873112 162.461533,57.536774 
	C161.797638,60.266621 159.789886,59.423485 158.112839,59.633724 
	C156.325119,59.857838 153.918427,58.809525 153.838882,62.186050 
	C153.755478,65.725754 156.165161,65.115280 158.261459,65.174561 
	C161.288651,65.260162 164.734161,64.193054 164.805252,69.426041 
	C164.861984,73.603081 163.944977,75.544579 159.302063,75.054771 
	C155.187271,74.620689 150.983276,74.810097 146.832626,75.011810 
	C143.766281,75.160835 142.535675,73.776527 142.530319,70.956581 
	C142.509735,60.139408 142.512604,49.322174 142.520691,38.504971 
	C142.522949,35.490818 143.790115,33.962494 147.079575,34.099960 
	C151.731277,34.294365 156.397812,34.207874 161.056488,34.139053 
	C165.362732,34.075439 163.991196,37.294399 164.129166,39.482208 
	C164.268936,41.698299 164.812134,44.458202 160.944244,44.076633 
	C159.626053,43.946598 158.279343,43.997395 156.953629,44.085430 
	C155.882263,44.156582 154.338562,43.628922 154.075180,45.245598 
	C153.831711,46.740086 153.070526,48.661652 155.950714,49.347092 
z"/>
<path fill="#5D65F6" opacity="1.000000" stroke="none" 
	d="
M88.992615,70.777222 
	C88.991806,59.982594 89.178627,49.657352 88.902229,39.344521 
	C88.787636,35.068668 90.317429,33.794094 94.369835,34.081318 
	C98.510498,34.374790 102.697151,34.320347 106.846809,34.100266 
	C110.926346,33.883904 110.814400,36.386978 110.906944,39.254131 
	C111.007637,42.373615 110.523849,44.598415 106.667114,44.065228 
	C106.340530,44.020077 105.992516,44.009007 105.670769,44.069244 
	C103.488228,44.477856 99.999031,42.734154 99.852875,46.726612 
	C99.713783,50.526131 103.041649,49.229443 105.091629,49.349541 
	C109.157059,49.587719 108.641151,52.494400 108.750626,55.122620 
	C108.858292,57.707478 108.518326,59.881977 105.104111,59.644176 
	C104.112015,59.575077 103.106224,59.631718 102.110985,59.696461 
	C100.816902,59.780647 99.892326,60.342079 99.786224,61.776707 
	C99.676857,63.255455 100.153694,64.555168 101.654297,64.889992 
	C103.090080,65.210350 104.621338,65.128548 106.112122,65.171837 
	C110.344994,65.294739 112.910378,70.127846 110.740631,73.862518 
	C109.997467,75.141678 108.776474,74.930489 107.667229,74.938423 
	C102.507416,74.975357 97.344810,74.859459 92.188042,74.989883 
	C89.363731,75.061325 88.793541,73.576385 88.992615,70.777222 
z"/>
<path fill="#5D65F6" opacity="1.000000" stroke="none" 
	d="
M408.423340,60.017731 
	C405.789154,57.320282 402.937531,55.201130 400.850372,52.492847 
	C396.562805,46.929268 398.144775,39.385807 403.998932,35.655441 
	C409.662659,32.046425 416.358307,33.592911 419.880035,39.323524 
	C422.727448,43.956886 421.258087,47.527870 415.993500,48.576576 
	C413.457001,49.081852 413.218903,49.852970 415.169220,51.643791 
	C417.963715,54.209763 420.093079,57.143433 421.439880,60.895542 
	C423.263885,65.977219 421.376862,69.839485 418.108093,72.951057 
	C414.372955,76.506523 409.319122,76.010223 404.907501,74.516731 
	C400.566742,73.047226 399.249481,68.775360 398.555878,64.578865 
	C398.193634,62.387211 399.190826,61.073845 401.603790,61.133492 
	C403.431458,61.178669 405.260895,61.151691 407.532532,61.162247 
	C408.942230,61.588772 409.372040,62.527515 410.060913,63.465023 
	C410.126007,61.991631 408.963013,61.346043 408.423340,60.017731 
z"/>
<path fill="#646CF7" opacity="1.000000" stroke="none" 
	d="
M453.349823,44.085529 
	C453.349915,42.603539 453.347565,41.607800 453.349976,40.612064 
	C453.364227,34.720085 457.760803,31.915228 463.134277,34.318066 
	C464.895477,35.105598 464.818329,36.616734 464.820496,38.093777 
	C464.836609,49.212822 464.740692,60.332874 464.866180,71.450508 
	C464.916473,75.909035 461.837555,75.025787 459.371918,74.928596 
	C456.875610,74.830200 453.295624,76.314056 453.333832,71.456581 
	C453.404358,62.495491 453.351196,53.533436 453.349823,44.085529 
z"/>
<path fill="#5961F6" opacity="1.000000" stroke="none" 
	d="
M366.209503,66.940292 
	C366.209473,68.261909 366.119080,69.105087 366.224731,69.922935 
	C366.701233,73.610855 365.607178,75.263474 361.415771,75.087708 
	C357.690948,74.931511 355.674072,74.615776 355.827179,70.019554 
	C356.175781,59.554024 356.091187,49.065575 355.861481,38.593483 
	C355.770752,34.456802 357.823883,34.117031 361.094452,34.084774 
	C364.373810,34.052425 366.403656,34.350288 366.288544,38.513378 
	C366.031250,47.819267 366.208923,57.137180 366.209503,66.940292 
z"/>
<path fill="#D6D9FC" opacity="1.000000" stroke="none" 
	d="
M207.416611,72.999947 
	C207.007492,70.297630 206.960724,67.576042 206.995758,64.407288 
	C207.191132,63.817070 207.304688,63.674011 207.274658,63.297611 
	C207.311188,60.442047 208.173309,61.199482 209.083832,62.697533 
	C210.889832,65.668877 209.918625,68.962799 210.032364,72.569305 
	C209.229660,73.004738 208.504303,72.992706 207.416611,72.999947 
z"/>
<path fill="#B9BDFA" opacity="1.000000" stroke="none" 
	d="
M565.124268,53.245003 
	C564.812622,52.975346 564.723877,52.568810 564.780762,52.369484 
	C568.845337,50.554886 572.854980,50.216698 576.960693,52.536667 
	C573.703369,52.920258 570.353760,52.917698 566.555176,52.975021 
	C565.882751,53.194820 565.659363,53.354740 565.124268,53.245003 
z"/>
<path fill="#C8CBFB" opacity="1.000000" stroke="none" 
	d="
M408.202972,60.068909 
	C408.734558,59.917049 409.220032,60.065933 409.606232,60.349842 
	C411.106049,61.452431 412.458130,62.666775 411.869446,64.823494 
	C411.670959,65.550613 411.064056,65.935188 410.381989,65.813957 
	C408.118439,65.411667 409.020142,63.116898 408.049561,61.524284 
	C408.020782,60.922348 408.066010,60.677017 408.202972,60.068909 
z"/>
<path fill="#B9BDFA" opacity="1.000000" stroke="none" 
	d="
M565.165649,44.937466 
	C567.836548,43.933784 567.836548,43.933784 568.042358,48.558270 
	C565.411804,48.925400 566.510620,46.310806 565.165649,44.937466 
z"/>
<path fill="#B9BDFA" opacity="1.000000" stroke="none" 
	d="
M576.708374,69.051910 
	C576.075989,68.020157 575.971130,66.890297 577.370483,65.871414 
	C578.122070,66.931747 578.138245,68.039192 576.708374,69.051910 
z"/>
<path fill="#DDDFFC" opacity="1.000000" stroke="none" 
	d="
M206.901901,46.266090 
	C207.395782,43.452034 208.640182,43.637466 209.691208,45.270809 
	C210.237732,46.120110 210.088089,47.473087 210.096405,48.599697 
	C210.108337,50.216782 210.158142,52.434036 208.039154,52.284878 
	C206.137070,52.150993 207.135681,49.942261 206.904785,48.644989 
	C206.792496,48.014202 206.887711,47.346485 206.901901,46.266090 
z"/>
<path fill="#FEFEFF" opacity="1.000000" stroke="none" 
	d="
M207.080627,63.286018 
	C207.282730,63.222183 207.448105,63.370342 207.573578,63.546860 
	C207.596619,63.579273 207.457779,63.726776 207.235626,63.890640 
	C207.077576,63.960129 207.030182,63.507771 207.080627,63.286018 
z"/>
<path fill="#CDCFFB" opacity="1.000000" stroke="none" 
	d="
M309.182678,48.742973 
	C309.470459,46.850582 308.354858,44.760414 310.632538,44.151314 
	C311.865204,43.821659 312.944489,44.627350 312.882324,46.070210 
	C312.788452,48.247841 314.142548,51.214405 311.455872,52.275856 
	C308.901123,53.285187 309.429718,50.622471 309.182678,48.742973 
z"/>
<path fill="#E2E4FD" opacity="1.000000" stroke="none" 
	d="
M42.956291,49.135857 
	C42.986271,47.690346 42.976551,46.697948 43.057407,45.712982 
	C43.134949,44.768478 43.663086,44.207531 44.664307,44.277111 
	C45.721882,44.350609 45.994602,45.166275 46.018803,46.000172 
	C46.090637,48.475155 46.129101,50.953461 46.080265,53.428486 
	C46.059364,54.487743 46.394466,55.990162 44.661823,56.034035 
	C43.037334,56.075169 43.013985,54.727535 42.981308,53.555340 
	C42.944504,52.235092 42.962204,50.913322 42.956291,49.135857 
z"/>
<path fill="#CED0FB" opacity="1.000000" stroke="none" 
	d="
M565.672974,58.760906 
	C565.962830,59.169319 565.981995,59.343460 566.066406,59.476025 
	C567.157349,61.189823 568.862366,62.776466 567.543030,65.059540 
	C567.317383,65.450089 566.210693,65.805618 565.900574,65.597343 
	C563.675842,64.103302 564.865601,61.835022 564.845398,59.416245 
	C565.090881,58.823872 565.261780,58.665592 565.672974,58.760906 
z"/>
<path fill="#BFC3FA" opacity="1.000000" stroke="none" 
	d="
M565.952148,58.588120 
	C565.913330,59.014500 565.417053,59.001377 565.168518,58.991764 
	C564.885376,57.266716 564.850830,55.551281 564.814453,53.405594 
	C565.028259,52.983135 565.243835,52.990925 565.782837,53.016808 
	C566.067810,54.743851 566.029419,56.452797 565.952148,58.588120 
z"/>
<path fill="#FEFEFF" opacity="1.000000" stroke="none" 
	d="
M409.416809,46.582077 
	C408.918365,45.501591 408.833405,44.630924 409.672333,44.270374 
	C409.964233,44.144932 410.868408,44.726097 411.031067,45.158352 
	C411.447968,46.266205 410.934570,46.929253 409.416809,46.582077 
z"/>
</svg>